<svg width="21" height="20" viewBox="0 0 21 20" fill="none" xmlns="http://www.w3.org/2000/svg">
<path d="M12.6135 18.0716C12.6452 18.1505 12.7002 18.2179 12.7712 18.2646C12.8423 18.3113 12.9259 18.3352 13.0109 18.333C13.0959 18.3308 13.1781 18.3027 13.2467 18.2524C13.3152 18.2021 13.3668 18.1321 13.3943 18.0516L18.811 2.2183C18.8377 2.14446 18.8428 2.06455 18.8257 1.98793C18.8086 1.9113 18.77 1.84113 18.7145 1.78561C18.659 1.7301 18.5888 1.69154 18.5122 1.67446C18.4356 1.65737 18.3557 1.66246 18.2818 1.68913L2.4485 7.1058C2.36808 7.13338 2.29802 7.1849 2.24772 7.25344C2.19743 7.32199 2.16931 7.40428 2.16713 7.48926C2.16495 7.57425 2.18883 7.65787 2.23555 7.7289C2.28226 7.79993 2.34959 7.85497 2.4285 7.88663L9.03683 10.5366C9.24574 10.6203 9.43554 10.7453 9.5948 10.9043C9.75406 11.0633 9.87948 11.2529 9.9635 11.4616L12.6135 18.0716Z" stroke="white" stroke-width="2" stroke-linecap="round" stroke-linejoin="round"/>
<path d="M18.7114 1.78906L9.59473 10.9049" stroke="white" stroke-width="2" stroke-linecap="round" stroke-linejoin="round"/>
</svg>
