<svg width="34" height="32" viewBox="0 0 34 32" fill="none" xmlns="http://www.w3.org/2000/svg">
<path d="M29.7502 4H4.25016C3.46776 4 2.8335 4.59695 2.8335 5.33333V9.33333C2.8335 10.0697 3.46776 10.6667 4.25016 10.6667H29.7502C30.5326 10.6667 31.1668 10.0697 31.1668 9.33333V5.33333C31.1668 4.59695 30.5326 4 29.7502 4Z" stroke="#4E4E4E" stroke-width="2.5" stroke-linecap="round" stroke-linejoin="round"/>
<path d="M5.6665 10.6667V25.3334C5.6665 26.0407 5.96501 26.7189 6.49637 27.219C7.02772 27.7191 7.74839 28.0001 8.49984 28.0001H11.3332" stroke="#4E4E4E" stroke-width="2.5" stroke-linecap="round" stroke-linejoin="round"/>
<path d="M28.3332 10.6667V25.3334C28.3332 26.0407 28.0347 26.7189 27.5033 27.219C26.972 27.7191 26.2513 28.0001 25.4998 28.0001H22.6665" stroke="#4E4E4E" stroke-width="2.5" stroke-linecap="round" stroke-linejoin="round"/>
<path d="M12.75 20L17 16L21.25 20" stroke="#4E4E4E" stroke-width="2.5" stroke-linecap="round" stroke-linejoin="round"/>
<path d="M17 16V28" stroke="#4E4E4E" stroke-width="2.5" stroke-linecap="round" stroke-linejoin="round"/>
</svg>
