<svg width="34" height="34" viewBox="0 0 34 34" fill="none" xmlns="http://www.w3.org/2000/svg">
<path d="M23.7294 17H28.8747C29.1161 17.0001 29.3535 17.0619 29.5643 17.1796C29.775 17.2972 29.9523 17.4667 30.0792 17.6721C30.206 17.8774 30.2783 18.1118 30.2892 18.3529C30.3001 18.5941 30.2491 18.834 30.1412 19.0499L27.2597 24.8143C27.1505 25.0328 26.9866 25.2192 26.784 25.3557C26.5814 25.4921 26.347 25.5738 26.1035 25.5929C25.86 25.612 25.6158 25.5678 25.3944 25.4647C25.173 25.3615 24.982 25.2029 24.8401 25.0042L21.8311 20.7967" stroke="#626262" stroke-width="2.5" stroke-linecap="round" stroke-linejoin="round"/>
<path d="M24.2335 12.825C24.5692 12.9931 24.8245 13.2876 24.9433 13.6438C25.062 14.0001 25.0345 14.3888 24.8667 14.7248L20.4666 23.5237C20.3833 23.6901 20.2681 23.8385 20.1275 23.9604C19.9869 24.0823 19.8237 24.1754 19.6472 24.2342C19.4706 24.293 19.2842 24.3164 19.0986 24.3032C18.913 24.2899 18.7318 24.2402 18.5654 24.1569L5.11414 17.4249C4.13711 16.9328 3.39481 16.0737 3.04966 15.0356C2.70451 13.9975 2.78463 12.865 3.27247 11.8858L5.22747 7.93328C5.47114 7.44767 5.80808 7.01483 6.21905 6.65946C6.63002 6.30409 7.10697 6.03316 7.62266 5.86214C8.13835 5.69112 8.68268 5.62336 9.22456 5.66273C9.76644 5.70211 10.2953 5.84784 10.7808 6.09161L24.2335 12.825Z" stroke="#626262" stroke-width="2.5" stroke-linecap="round" stroke-linejoin="round"/>
<path d="M2.8335 26.9167H8.16016C8.6882 26.9203 9.20675 26.7764 9.65732 26.501C10.1079 26.2257 10.4726 25.8299 10.7102 25.3583L12.7502 21.25" stroke="#626262" stroke-width="2.5" stroke-linecap="round" stroke-linejoin="round"/>
<path d="M2.8335 29.7499V24.0833" stroke="#626262" stroke-width="2.5" stroke-linecap="round" stroke-linejoin="round"/>
<path d="M9.9165 12.75H9.93021" stroke="#626262" stroke-width="2.5" stroke-linecap="round" stroke-linejoin="round"/>
</svg>
