<svg width="43" height="43" viewBox="0 0 43 43" fill="none" xmlns="http://www.w3.org/2000/svg">
<path d="M35.9375 13.625L34.8438 32.231C34.7848 33.2338 34.3448 34.1762 33.6138 34.8653C32.8828 35.5543 31.9161 35.9379 30.9115 35.9375H12.0885C11.0839 35.9379 10.1172 35.5543 9.3862 34.8653C8.65519 34.1762 8.21518 33.2338 8.15625 32.231L7.0625 13.625M18 20.1875H25M6.40625 13.625H36.5938C37.6805 13.625 38.5625 12.743 38.5625 11.6562V9.03125C38.5625 7.9445 37.6805 7.0625 36.5938 7.0625H6.40625C5.3195 7.0625 4.4375 7.9445 4.4375 9.03125V11.6562C4.4375 12.743 5.3195 13.625 6.40625 13.625Z" stroke="#7E7E7E" stroke-width="2.7" stroke-linecap="round" stroke-linejoin="round"/>
</svg>
