<svg width="41" height="41" viewBox="0 0 41 41" fill="none" xmlns="http://www.w3.org/2000/svg">
<path d="M12.4744 27.3655C16.1306 27.3655 19.1221 24.3241 19.1221 20.6347C19.1221 18.7068 18.1748 16.8787 16.2802 15.3331C14.3856 13.7875 12.9563 11.494 12.4744 9.08423C11.9924 11.494 10.5798 13.8041 8.66856 15.3331C6.75734 16.8621 5.82666 18.7234 5.82666 20.6347C5.82666 24.3241 8.81814 27.3655 12.4744 27.3655Z" stroke="#919191" stroke-width="3.75" stroke-linecap="round" stroke-linejoin="round"/>
<path d="M21.7147 11.2446C22.8577 9.41838 23.6679 7.40399 24.1078 5.29492C24.9388 9.44975 27.4317 13.4384 30.7556 16.0975C34.0794 18.7566 35.7414 21.9142 35.7414 25.2381C35.7509 27.5354 35.078 29.7837 33.8082 31.6982C32.5384 33.6126 30.7287 35.1069 28.6086 35.9916C26.4885 36.8763 24.1534 37.1116 21.8994 36.6677C19.6454 36.2237 17.574 35.1205 15.9478 33.4979" stroke="#919191" stroke-width="3.75" stroke-linecap="round" stroke-linejoin="round"/>
</svg>
