<svg width="42" height="42" viewBox="0 0 42 42" fill="none" xmlns="http://www.w3.org/2000/svg">
<path d="M15.0539 25.0598C16.1803 25.0598 17.2606 24.6142 18.0571 23.8212C18.8536 23.0281 19.3011 21.9525 19.3011 20.831C19.3011 18.4967 18.4517 17.448 17.6022 15.7565C15.781 12.1316 17.2217 8.8991 21 5.60742C21.8494 9.83619 24.3977 13.8958 27.7954 16.6022C31.1931 19.3086 32.892 22.5225 32.892 25.9055C32.892 27.4605 32.5844 29.0002 31.9868 30.4367C31.3891 31.8733 30.5132 33.1786 29.4089 34.2781C28.3046 35.3776 26.9937 36.2497 25.5508 36.8448C24.108 37.4398 22.5616 37.7461 21 37.7461C19.4383 37.7461 17.8919 37.4398 16.4491 36.8448C15.0063 36.2497 13.6953 35.3776 12.591 34.2781C11.4867 33.1786 10.6108 31.8733 10.0131 30.4367C9.41551 29.0002 9.10791 27.4605 9.10791 25.9055C9.10791 23.9552 9.84352 22.0252 10.8068 20.831C10.8068 21.9525 11.2542 23.0281 12.0507 23.8212C12.8472 24.6142 13.9275 25.0598 15.0539 25.0598Z" stroke="#919191" stroke-width="3.7" stroke-linecap="round" stroke-linejoin="round"/>
</svg>
