<svg width="36" height="36" viewBox="0 0 36 36" fill="none" xmlns="http://www.w3.org/2000/svg">
<path d="M26.8637 17.2644V13.5712C26.8637 12.7877 26.5524 12.0362 25.9983 11.4821C25.4442 10.928 24.6927 10.6167 23.9091 10.6167C23.1255 10.6167 22.374 10.928 21.82 11.4821C21.2659 12.0362 20.9546 12.7877 20.9546 13.5712V15.6394" stroke="#919191" stroke-width="3.5" stroke-linecap="round" stroke-linejoin="round"/>
<path d="M20.9545 15.0485V12.0939C20.9545 11.3104 20.6432 10.5589 20.0891 10.0048C19.535 9.45069 18.7835 9.1394 18 9.1394C17.2164 9.1394 16.4649 9.45069 15.9108 10.0048C15.3567 10.5589 15.0454 11.3104 15.0454 12.0939V15.0485" stroke="#919191" stroke-width="3.5" stroke-linecap="round" stroke-linejoin="round"/>
<path d="M15.0453 14.9008V13.5712C15.0453 12.7877 14.734 12.0362 14.18 11.4821C13.6259 10.928 12.8744 10.6167 12.0908 10.6167C11.3072 10.6167 10.5557 10.928 10.0016 11.4821C9.44751 12.0362 9.13623 12.7877 9.13623 13.5712V20.9576" stroke="#919191" stroke-width="3.5" stroke-linecap="round" stroke-linejoin="round"/>
<path d="M9.13639 20.9577C9.13639 20.1741 8.8251 19.4226 8.27102 18.8685C7.71693 18.3145 6.96543 18.0032 6.18184 18.0032C5.39825 18.0032 4.64675 18.3145 4.09266 18.8685C3.53858 19.4226 3.22729 20.1741 3.22729 20.9577" stroke="#919191" stroke-width="3.5" stroke-linecap="round" stroke-linejoin="round"/>
<path d="M26.8637 16.5258C26.8637 15.7422 27.1749 14.9907 27.729 14.4367C28.2831 13.8826 29.0346 13.5713 29.8182 13.5713C30.6018 13.5713 31.3533 13.8826 31.9074 14.4367C32.4615 14.9907 32.7727 15.7422 32.7727 16.5258V20.9577C32.7727 24.092 31.5276 27.098 29.3113 29.3144C27.0949 31.5307 24.0889 32.7758 20.9546 32.7758H15.0455C11.9111 32.7758 8.9051 31.5307 6.68876 29.3144C4.47242 27.098 3.22729 24.092 3.22729 20.9577C3.22729 20.1741 3.53858 19.4226 4.09266 18.8685C4.64675 18.3144 5.39825 18.0031 6.18184 18.0031C6.96543 18.0031 7.71693 18.3144 8.27102 18.8685C8.8251 19.4226 9.13639 20.1741 9.13639 20.9577" stroke="#919191" stroke-width="3.5" stroke-linecap="round" stroke-linejoin="round"/>
</svg>
