<svg width="42" height="43" viewBox="0 0 42 43" fill="none" xmlns="http://www.w3.org/2000/svg">
<path d="M17.5875 8.50625C17.5875 8.14429 17.5162 7.78588 17.3777 7.45148C17.2392 7.11708 17.0362 6.81323 16.7802 6.55729C16.5243 6.30135 16.2204 6.09832 15.886 5.95981C15.5516 5.82129 15.1932 5.75 14.8313 5.75C14.4693 5.75 14.1109 5.82129 13.7765 5.95981C13.4421 6.09832 13.1382 6.30135 12.8823 6.55729C12.6263 6.81323 12.4233 7.11708 12.2848 7.45148C12.1463 7.78588 12.075 8.14429 12.075 8.50625V13.7562M17.5875 8.50625V5.88125C17.5875 5.15025 17.8779 4.44918 18.3948 3.93229C18.9117 3.41539 19.6127 3.125 20.3438 3.125C21.0748 3.125 21.7758 3.41539 22.2927 3.93229C22.8096 4.44918 23.1 5.15025 23.1 5.88125V8.50625M17.5875 8.50625L17.7188 18.875M12.075 13.7562C12.075 13.0252 11.7846 12.3242 11.2677 11.8073C10.7508 11.2904 10.0498 11 9.31875 11C8.58775 11 7.88668 11.2904 7.36979 11.8073C6.85289 12.3242 6.5625 13.0252 6.5625 13.7562V28.0625C6.5625 31.1954 7.80703 34.1999 10.0223 36.4152C12.2376 38.6305 15.2421 39.875 18.375 39.875H21.9065C24.3431 39.8747 26.6797 38.9066 28.4025 37.1835L31.4335 34.1525C33.1566 32.4297 34.1247 30.0931 34.125 27.6565L34.1303 24.1145C34.132 23.8047 34.2566 23.5082 34.4768 23.2902C34.7328 23.0342 34.9358 22.7303 35.0744 22.3958C35.2129 22.0613 35.2843 21.7028 35.2843 21.3408C35.2843 20.9787 35.2129 20.6202 35.0744 20.2857C34.9358 19.9512 34.7328 19.6473 34.4768 19.3913C34.2207 19.1352 33.9168 18.9322 33.5823 18.7936C33.2478 18.6551 32.8893 18.5837 32.5272 18.5837C32.1652 18.5837 31.8067 18.6551 31.4722 18.7936C31.1377 18.9322 30.8338 19.1352 30.5777 19.3913C29.3291 20.6383 28.6245 22.3287 28.6178 24.0935M12.075 13.7562V21.5M23.1 8.50625V20.1875M23.1 8.50625C23.1 7.77525 23.3904 7.07418 23.9073 6.55729C24.4242 6.04039 25.1252 5.75 25.8562 5.75C26.5873 5.75 27.2883 6.04039 27.8052 6.55729C28.3221 7.07418 28.6125 7.77525 28.6125 8.50625V26.75M28.6125 26.75C27.5788 26.7495 26.5551 26.953 25.6002 27.3488C24.6452 27.7446 23.7778 28.3249 23.0475 29.0565M28.6125 26.75H28.616" stroke="#7E7E7E" stroke-width="2.8" stroke-linecap="round" stroke-linejoin="round"/>
</svg>
