<svg width="34" height="34" viewBox="0 0 34 34" fill="none" xmlns="http://www.w3.org/2000/svg">
<path d="M15.5833 24.0832L18.4166 26.9165C18.6956 27.1956 19.0269 27.4169 19.3915 27.568C19.7562 27.719 20.1469 27.7967 20.5416 27.7967C20.9362 27.7967 21.327 27.719 21.6916 27.568C22.0562 27.4169 22.3875 27.1956 22.6666 26.9165C22.9456 26.6374 23.167 26.3062 23.318 25.9415C23.4691 25.5769 23.5468 25.1862 23.5468 24.7915C23.5468 24.3969 23.4691 24.0061 23.318 23.6415C23.167 23.2769 22.9456 22.9456 22.6666 22.6665" stroke="#626262" stroke-width="3" stroke-linecap="round" stroke-linejoin="round"/>
<path d="M19.8334 19.8336L23.3751 23.3752C23.9387 23.9388 24.703 24.2554 25.5001 24.2554C26.2971 24.2554 27.0615 23.9388 27.6251 23.3752C28.1887 22.8116 28.5053 22.0473 28.5053 21.2502C28.5053 20.4532 28.1887 19.6888 27.6251 19.1252L22.1284 13.6286C21.3315 12.8327 20.2513 12.3856 19.1251 12.3856C17.9988 12.3856 16.9186 12.8327 16.1217 13.6286L14.8751 14.8752C14.3115 15.4388 13.5471 15.7554 12.7501 15.7554C11.953 15.7554 11.1887 15.4388 10.6251 14.8752C10.0615 14.3116 9.74487 13.5473 9.74487 12.7502C9.74487 11.9532 10.0615 11.1888 10.6251 10.6252L14.6059 6.64439C15.8983 5.35543 17.5836 4.53434 19.3952 4.3111C21.2067 4.08787 23.041 4.47524 24.6076 5.41189L25.2734 5.80856C25.8766 6.17262 26.5938 6.29889 27.2851 6.16272L29.7501 5.66689" stroke="#626262" stroke-width="3" stroke-linecap="round" stroke-linejoin="round"/>
<path d="M29.7499 4.25L31.1666 19.8333H28.3333" stroke="#626262" stroke-width="3" stroke-linecap="round" stroke-linejoin="round"/>
<path d="M4.24992 4.25L2.83325 19.8333L12.0416 29.0417C12.6052 29.6053 13.3696 29.9219 14.1666 29.9219C14.9636 29.9219 15.728 29.6053 16.2916 29.0417C16.8552 28.4781 17.1718 27.7137 17.1718 26.9167C17.1718 26.1196 16.8552 25.3553 16.2916 24.7917" stroke="#626262" stroke-width="3" stroke-linecap="round" stroke-linejoin="round"/>
<path d="M4.25 5.6665H15.5833" stroke="#626262" stroke-width="3" stroke-linecap="round" stroke-linejoin="round"/>
</svg>
