<svg width="32" height="33" viewBox="0 0 32 33" fill="none" xmlns="http://www.w3.org/2000/svg">
<path d="M2.66666 29.4583H29.3333" stroke="white" stroke-width="2.5" stroke-linecap="round" stroke-linejoin="round"/>
<path d="M8.47999 23.3251L5.33332 22.7918L2.66666 17.4584L4.13332 16.7251C4.50553 16.5375 4.91653 16.4398 5.33332 16.4398C5.75012 16.4398 6.16111 16.5375 6.53332 16.7251L6.75999 16.8584C7.1322 17.046 7.54319 17.1437 7.95999 17.1437C8.37679 17.1437 8.78778 17.046 9.15999 16.8584L10.6667 16.1251L6.66666 8.12508L7.86666 7.52509C8.31022 7.30688 8.80571 7.21626 9.2978 7.26335C9.78988 7.31044 10.2592 7.49338 10.6533 7.79175L16.0133 11.7918C16.4088 12.0927 16.8806 12.2771 17.3753 12.3243C17.8701 12.3714 18.3681 12.2793 18.8133 12.0584L24.4 9.31175C25.1139 8.95187 25.9363 8.87105 26.7067 9.08508L28 9.45842C28.2672 9.53263 28.5145 9.66545 28.724 9.84722C28.9335 10.029 29.0998 10.2552 29.2109 10.5093C29.322 10.7634 29.375 11.0391 29.3662 11.3163C29.3574 11.5934 29.287 11.8652 29.16 12.1118L28.6533 13.1251C28.3467 13.7384 27.8533 14.2451 27.2267 14.5651L10.1067 23.0584C9.60325 23.3078 9.03396 23.3918 8.47999 23.2984V23.3251Z" stroke="white" stroke-width="2.5" stroke-linecap="round" stroke-linejoin="round"/>
</svg>
