<svg width="25" height="25" viewBox="0 0 25 25" fill="none" xmlns="http://www.w3.org/2000/svg">
<g clip-path="url(#clip0_84_387)">
<path d="M15.1417 22.5894C15.1813 22.688 15.2501 22.7722 15.3388 22.8306C15.4276 22.889 15.5322 22.9188 15.6384 22.9161C15.7446 22.9134 15.8475 22.8783 15.9332 22.8154C16.0189 22.7525 16.0833 22.6649 16.1177 22.5644L22.8886 2.77275C22.9219 2.68045 22.9283 2.58057 22.9069 2.48479C22.8855 2.38901 22.8374 2.30129 22.768 2.23189C22.6986 2.1625 22.6109 2.11431 22.5151 2.09295C22.4193 2.07159 22.3194 2.07796 22.2271 2.11129L2.43544 8.88213C2.33491 8.9166 2.24734 8.981 2.18447 9.06668C2.1216 9.15236 2.08645 9.25522 2.08373 9.36146C2.08101 9.46769 2.11085 9.57222 2.16925 9.66101C2.22765 9.7498 2.31181 9.81859 2.41044 9.85817L10.6709 13.1707C10.932 13.2752 11.1692 13.4316 11.3683 13.6303C11.5674 13.829 11.7242 14.066 11.8292 14.3269L15.1417 22.5894Z" stroke="black" stroke-width="2.2" stroke-linecap="round" stroke-linejoin="round"/>
<path d="M22.7646 2.23633L11.3688 13.6311" stroke="black" stroke-width="2.2" stroke-linecap="round" stroke-linejoin="round"/>
</g>
<defs>
<clipPath id="clip0_84_387">
<rect width="25" height="25" fill="white"/>
</clipPath>
</defs>
</svg>
