<svg width="31" height="31" viewBox="0 0 31 31" fill="none" xmlns="http://www.w3.org/2000/svg">
<path d="M15.5 13.1609V18.0834" stroke="white" stroke-width="2.5" stroke-linecap="round" stroke-linejoin="round"/>
<path d="M15.5 2.58325V6.45825" stroke="white" stroke-width="2.5" stroke-linecap="round" stroke-linejoin="round"/>
<path d="M24.5417 16.7916V9.04159C24.5417 8.35644 24.2695 7.69936 23.785 7.21489C23.3006 6.73042 22.6435 6.45825 21.9583 6.45825H9.04168C8.35653 6.45825 7.69945 6.73042 7.21498 7.21489C6.73052 7.69936 6.45834 8.35644 6.45834 9.04159V16.7916" stroke="white" stroke-width="2.5" stroke-linecap="round" stroke-linejoin="round"/>
<path d="M25.0325 25.8333C26.4219 23.4883 27.1454 20.8088 27.125 18.0833L16.5488 13.3829C16.2186 13.2362 15.8613 13.1604 15.5 13.1604C15.1387 13.1604 14.7814 13.2362 14.4512 13.3829L3.875 18.0833C3.81521 21.7564 5.10689 25.3234 7.50459 28.1066" stroke="white" stroke-width="2.5" stroke-linecap="round" stroke-linejoin="round"/>
<path d="M2.58334 27.1249C3.35834 27.7708 4.13334 28.4166 5.81251 28.4166C9.04168 28.4166 9.04168 25.8333 12.2708 25.8333C13.95 25.8333 14.725 26.4791 15.5 27.1249C16.275 27.7708 17.05 28.4166 18.7292 28.4166C21.9583 28.4166 21.9583 25.8333 25.1875 25.8333C26.8667 25.8333 27.6417 26.4791 28.4167 27.1249" stroke="white" stroke-width="2.5" stroke-linecap="round" stroke-linejoin="round"/>
</svg>
