<svg width="42" height="43" viewBox="0 0 42 43" fill="none" xmlns="http://www.w3.org/2000/svg">
<path d="M19.9852 27.0475L30.1877 37.25C31.0627 38.097 32.2356 38.5662 33.4534 38.5563C34.6712 38.5464 35.8363 38.0583 36.6974 37.1972C37.5585 36.336 38.0467 35.1709 38.0566 33.9531C38.0664 32.7354 37.5973 31.5625 36.7502 30.6875L26.4655 20.4028M19.9852 27.0475L24.3532 21.745C24.908 21.073 25.6482 20.6495 26.4672 20.4045C27.4297 20.1175 28.5025 20.0755 29.5175 20.1595C30.8857 20.277 32.2608 20.0347 33.5064 19.4566C34.7521 18.8784 35.8249 17.9847 36.6184 16.8639C37.4119 15.7432 37.8985 14.4344 38.03 13.0674C38.1615 11.7005 37.9333 10.323 37.368 9.0715L31.635 14.8063C30.6758 14.5845 29.7982 14.0978 29.1021 13.4017C28.406 12.7055 27.9193 11.8279 27.6975 10.8688L33.4305 5.13575C32.179 4.57044 30.8015 4.3422 29.4345 4.4737C28.0676 4.60519 26.7588 5.09184 25.6381 5.88536C24.5173 6.67888 23.6235 7.75167 23.0454 8.99729C22.4673 10.2429 22.225 11.6181 22.3425 12.9863C22.5017 14.8693 22.2182 16.9483 20.7605 18.1488L20.582 18.2975M19.9852 27.0475L11.839 36.9403C11.4442 37.4215 10.953 37.8148 10.397 38.0947C9.841 38.3747 9.23256 38.5351 8.61082 38.5657C7.98908 38.5963 7.36783 38.4964 6.78704 38.2724C6.20625 38.0484 5.6788 37.7053 5.23863 37.2651C4.79846 36.8249 4.45533 36.2975 4.23133 35.7167C4.00732 35.1359 3.90741 34.5147 3.93801 33.8929C3.96861 33.2712 4.12905 32.6627 4.40901 32.1068C4.68896 31.5508 5.08223 31.0596 5.56349 30.6648L17.5282 20.8123L10.341 13.625H7.87524L3.93774 7.0625L6.56274 4.4375L13.1252 8.375V10.8408L20.5802 18.2958L17.5265 20.8105M32.1565 32.6563L27.5627 28.0625M8.51749 33.9688H8.53149V33.9828H8.51749V33.9688Z" stroke="#7E7E7E" stroke-width="2.5" stroke-linecap="round" stroke-linejoin="round"/>
</svg>
