<svg width="40" height="38" viewBox="0 0 40 38" fill="none" xmlns="http://www.w3.org/2000/svg">
<path d="M23.3333 28.4999V9.49992C23.3333 8.66007 22.9822 7.85461 22.357 7.26075C21.7319 6.66688 20.8841 6.33325 20 6.33325H6.66668C5.78262 6.33325 4.93478 6.66688 4.30965 7.26075C3.68453 7.85461 3.33334 8.66007 3.33334 9.49992V26.9166C3.33334 27.3365 3.50894 27.7392 3.8215 28.0362C4.13406 28.3331 4.55798 28.4999 5.00001 28.4999H8.33334" stroke="white" stroke-width="2.5" stroke-linecap="round" stroke-linejoin="round"/>
<path d="M25 28.5H15" stroke="white" stroke-width="2.5" stroke-linecap="round" stroke-linejoin="round"/>
<path d="M31.6667 28.5001H35C35.442 28.5001 35.866 28.3333 36.1785 28.0363C36.4911 27.7394 36.6667 27.3367 36.6667 26.9167V21.1376C36.666 20.7783 36.5367 20.4298 36.3 20.1496L30.5 13.2621C30.3441 13.0766 30.1464 12.9269 29.9214 12.8238C29.6963 12.7208 29.4498 12.6671 29.2 12.6667H23.3333" stroke="white" stroke-width="2.5" stroke-linecap="round" stroke-linejoin="round"/>
<path d="M28.3333 31.6666C30.1743 31.6666 31.6667 30.2488 31.6667 28.4999C31.6667 26.751 30.1743 25.3333 28.3333 25.3333C26.4924 25.3333 25 26.751 25 28.4999C25 30.2488 26.4924 31.6666 28.3333 31.6666Z" stroke="white" stroke-width="2.5" stroke-linecap="round" stroke-linejoin="round"/>
<path d="M11.6667 31.6666C13.5076 31.6666 15 30.2488 15 28.4999C15 26.751 13.5076 25.3333 11.6667 25.3333C9.82573 25.3333 8.33334 26.751 8.33334 28.4999C8.33334 30.2488 9.82573 31.6666 11.6667 31.6666Z" stroke="white" stroke-width="2.5" stroke-linecap="round" stroke-linejoin="round"/>
</svg>
