<svg width="49" height="49" viewBox="0 0 49 49" fill="none" xmlns="http://www.w3.org/2000/svg">
<path d="M19.68 9.67997C20.1446 9.21259 20.7175 8.86725 21.3477 8.67465C21.978 8.48204 22.6461 8.44814 23.2926 8.57595C23.9391 8.70376 24.544 8.98932 25.0535 9.40726C25.5631 9.82519 25.9614 10.3625 26.2133 10.9716C26.4651 11.5806 26.5625 12.2423 26.4969 12.8981C26.4313 13.5538 26.2048 14.1832 25.8373 14.7303C25.4699 15.2774 24.9729 15.7252 24.3907 16.0339C23.8085 16.3426 23.159 16.5027 22.5 16.5H4.5M25.68 39.32C26.1446 39.7873 26.7175 40.1327 27.3477 40.3253C27.978 40.5179 28.6461 40.5518 29.2926 40.424C29.9391 40.2962 30.544 40.0106 31.0535 39.5927C31.5631 39.1747 31.9614 38.6374 32.2133 38.0284C32.4651 37.4194 32.5625 36.7576 32.4969 36.1018C32.4313 35.4461 32.2048 34.8167 31.8373 34.2696C31.4699 33.7226 30.9729 33.2748 30.3907 32.966C29.8085 32.6573 29.159 32.4972 28.5 32.5H4.5M35.96 15.96C36.5417 15.3797 37.2574 14.9518 38.0439 14.714C38.8303 14.4762 39.6632 14.4358 40.469 14.5965C41.2747 14.7572 42.0284 15.114 42.6635 15.6353C43.2985 16.1566 43.7953 16.8264 44.11 17.5853C44.4246 18.3443 44.5473 19.1692 44.4673 19.9869C44.3873 20.8046 44.107 21.59 43.6512 22.2736C43.1955 22.9572 42.5783 23.5179 41.8542 23.9063C41.1302 24.2946 40.3216 24.4985 39.5 24.5H4.5" stroke="#7E7E7E" stroke-width="3" stroke-linecap="round" stroke-linejoin="round"/>
</svg>
