<svg width="42" height="41" viewBox="0 0 42 41" fill="none" xmlns="http://www.w3.org/2000/svg">
<path d="M22.5003 2.06007V3.19607C22.5003 3.86407 22.7963 4.49607 23.3103 4.92407L25.4463 6.70407C26.3303 7.44207 26.5163 8.72407 25.8783 9.68407L24.8583 11.2161C24.3029 12.0485 23.4858 12.672 22.5363 12.9881L22.2503 13.0841C21.9276 13.192 21.6341 13.3728 21.3926 13.6125C21.1511 13.8523 20.9681 14.1444 20.8578 14.4663C20.7476 14.7883 20.713 15.1313 20.7568 15.4687C20.8006 15.8061 20.9215 16.129 21.1103 16.4121C21.8483 17.5221 21.4483 19.0261 20.2563 19.6221L15.0003 22.2501L15.8463 24.3681C16.0169 24.7982 16.0257 25.2757 15.8711 25.7119C15.7165 26.1481 15.4089 26.5134 15.0054 26.74C14.6019 26.9667 14.13 27.0393 13.677 26.9444C13.2241 26.8495 12.8209 26.5936 12.5423 26.2241L11.1843 24.4121C10.9542 24.1054 10.6494 23.8626 10.2991 23.7067C9.94871 23.5509 9.56433 23.4872 9.18243 23.5216C8.80052 23.5561 8.43376 23.6876 8.11696 23.9036C7.80016 24.1197 7.54383 24.4131 7.3723 24.7561L6.0003 27.5001L4.7763 27.8061M22.5003 2.06007C19.3384 1.79474 16.1626 2.37194 13.2946 3.72937C10.4266 5.0868 7.96841 7.17824 6.16909 9.79174C4.36977 12.4052 3.29327 15.4479 3.04868 18.6115C2.80409 21.7751 3.4001 24.9471 4.7763 27.8061M22.5003 2.06007C25.6357 2.32157 28.6478 3.40232 31.2363 5.1908C33.8248 6.97928 35.8993 9.415 37.253 12.2551C38.6067 15.0953 39.1923 18.2407 38.9515 21.3777C38.7106 24.5147 37.6517 27.5339 35.8803 30.1341L35.5263 29.0761C35.2274 28.1801 34.6542 27.4009 33.8878 26.8488C33.1215 26.2967 32.2008 25.9998 31.2563 26.0001H30.0003L29.3523 25.3521C29.0268 25.026 28.6285 24.7821 28.1901 24.6403C27.7518 24.4985 27.286 24.4629 26.8312 24.5366C26.3764 24.6102 25.9456 24.791 25.5745 25.0638C25.2033 25.3367 24.9023 25.694 24.6963 26.1061L24.6243 26.2521C24.4279 26.6453 24.1519 26.9935 23.8138 27.2744C23.4757 27.5554 23.0829 27.763 22.6603 27.8841L20.6803 28.4481C19.5803 28.7621 18.8923 29.8521 19.0803 30.9821L19.2263 31.8581C19.3863 32.8061 20.2063 33.5001 21.1663 33.5001C22.8583 33.5001 24.3623 34.5841 24.8963 36.1901L25.3263 37.4761M4.7763 27.8061C6.56912 31.5337 9.59103 34.5301 13.3337 36.2912C17.0764 38.0524 21.3114 38.4708 25.3263 37.4761M25.3263 37.4761C29.6262 36.4094 33.3826 33.7964 35.8783 30.1361M28.5003 14.0001C28.5003 15.7921 27.7143 17.4001 26.4683 18.5001" stroke="#7E7E7E" stroke-width="2.7" stroke-linecap="round" stroke-linejoin="round"/>
</svg>
