<svg width="30" height="30" viewBox="0 0 30 30" fill="none" xmlns="http://www.w3.org/2000/svg">
<path d="M18.3747 7.87504C18.1457 8.1087 18.0174 8.42285 18.0174 8.75004C18.0174 9.07723 18.1457 9.39137 18.3747 9.62504L20.3747 11.625C20.6084 11.8541 20.9225 11.9824 21.2497 11.9824C21.5769 11.9824 21.891 11.8541 22.1247 11.625L26.8372 6.91254C27.4657 8.30152 27.6561 9.84908 27.3828 11.349C27.1095 12.8489 26.3856 14.2298 25.3075 15.3079C24.2295 16.3859 22.8485 17.1098 21.3486 17.3831C19.8487 17.6564 18.3012 17.4661 16.9122 16.8375L8.2747 25.475C7.77742 25.9723 7.10296 26.2517 6.3997 26.2517C5.69644 26.2517 5.02198 25.9723 4.5247 25.475C4.02742 24.9778 3.74805 24.3033 3.74805 23.6C3.74805 22.8968 4.02742 22.2223 4.5247 21.725L13.1622 13.0875C12.5337 11.6985 12.3433 10.151 12.6166 8.6511C12.8899 7.15122 13.6138 5.77023 14.6918 4.69219C15.7699 3.61415 17.1509 2.89025 18.6508 2.61696C20.1507 2.34368 21.6982 2.53399 23.0872 3.16254L18.3872 7.86254L18.3747 7.87504Z" stroke="#454545" stroke-width="2" stroke-linecap="round" stroke-linejoin="round"/>
</svg>
