<svg width="253" height="45" viewBox="0 0 253 45" fill="none" xmlns="http://www.w3.org/2000/svg">
<path d="M11.0298 44.375L3.73892 37V7.625L11.0298 0.25H24.9261L32.2793 7.625V15.375H24.9884V10.75L21.5611 7.3125H14.7064L11.2791 10.75V33.875L14.7064 37.375H21.5611L24.9884 33.875V29.25H32.2793V37L24.9261 44.375H11.0298ZM54.5614 37.375V44.375H37.6116V37.375H41.1013V7.3125H37.6116V0.25H62.9116L66.6506 4.0625V12.3125H59.3597V9.625L58.9858 7.3125H48.4545V19.25H64.0956V26.375H48.4545V37.375H54.5614ZM98.6862 40.5625L94.9473 44.375H71.1429V37.375H74.6325V7.3125H71.1429V0.25H85.6V7.3125H82.1727V37.375H91.0837L91.3953 34.4375V31.0625H98.6862V40.5625Z" fill="white"/>
<path d="M114.187 25.9825C112.761 25.9825 111.627 25.5975 110.787 24.8275C109.964 24.0392 109.553 23.0125 109.553 21.7475C109.553 20.5008 109.982 19.5108 110.841 18.7775C111.719 18.0258 112.962 17.5858 114.57 17.4575L118.628 17.1275V16.825C118.628 16.2017 118.509 15.7067 118.272 15.34C118.053 14.955 117.733 14.68 117.312 14.515C116.892 14.3317 116.398 14.24 115.832 14.24C114.845 14.24 114.086 14.4417 113.556 14.845C113.026 15.23 112.761 15.78 112.761 16.495H109.909C109.909 15.505 110.156 14.6525 110.649 13.9375C111.161 13.2042 111.874 12.6358 112.788 12.2325C113.72 11.8292 114.79 11.6275 115.996 11.6275C117.221 11.6275 118.272 11.8475 119.149 12.2875C120.027 12.7092 120.703 13.3508 121.178 14.2125C121.654 15.0558 121.891 16.11 121.891 17.375V25.625H118.957L118.711 23.6175C118.418 24.3142 117.851 24.8825 117.011 25.3225C116.188 25.7625 115.246 25.9825 114.187 25.9825ZM115.256 23.4525C116.298 23.4525 117.12 23.1592 117.724 22.5725C118.345 21.9858 118.656 21.17 118.656 20.125V19.41L115.832 19.63C114.79 19.7217 114.049 19.9417 113.611 20.29C113.172 20.62 112.953 21.06 112.953 21.61C112.953 22.215 113.154 22.6733 113.556 22.985C113.958 23.2967 114.525 23.4525 115.256 23.4525ZM133.677 11.985V15.0925H132.443C131.219 15.0925 130.259 15.4225 129.564 16.0825C128.87 16.7242 128.522 17.705 128.522 19.025V25.625H125.177V12.0675H128.33L128.604 14.8725H128.275C128.459 13.9742 128.888 13.2408 129.564 12.6725C130.241 12.1042 131.118 11.82 132.196 11.82C132.434 11.82 132.672 11.8292 132.909 11.8475C133.147 11.8658 133.403 11.9117 133.677 11.985ZM135.133 12.04H143.688V14.845H135.133V12.04ZM141.083 25.625H137.738V7.805H141.083V25.625Z" fill="#545454"/>
<path d="M109.114 40.25H112.295C112.313 40.8367 112.532 41.3042 112.953 41.6525C113.373 42.0008 113.958 42.175 114.707 42.175C115.512 42.175 116.115 42.0283 116.517 41.735C116.938 41.4417 117.148 41.0475 117.148 40.5525C117.148 40.2225 117.038 39.9292 116.819 39.6725C116.599 39.4158 116.188 39.2233 115.585 39.095L113.145 38.5175C111.92 38.2425 111.006 37.8025 110.403 37.1975C109.818 36.5742 109.525 35.7217 109.525 34.64C109.525 33.76 109.754 32.9992 110.211 32.3575C110.686 31.7158 111.326 31.23 112.13 30.9C112.935 30.5517 113.857 30.3775 114.899 30.3775C115.905 30.3775 116.791 30.5608 117.559 30.9275C118.327 31.2942 118.921 31.8075 119.341 32.4675C119.78 33.1275 120.009 33.8975 120.027 34.7775H116.846C116.846 34.1908 116.664 33.7325 116.298 33.4025C115.932 33.0542 115.42 32.88 114.762 32.88C114.104 32.88 113.593 33.0267 113.227 33.32C112.861 33.6133 112.678 34.0075 112.678 34.5025C112.678 35.2542 113.264 35.7675 114.433 36.0425L116.874 36.62C118.007 36.8767 118.857 37.2892 119.423 37.8575C120.009 38.4258 120.301 39.2325 120.301 40.2775C120.301 41.1942 120.063 41.9917 119.588 42.67C119.113 43.33 118.446 43.8433 117.586 44.21C116.727 44.5583 115.74 44.7325 114.625 44.7325C112.943 44.7325 111.6 44.32 110.595 43.495C109.608 42.67 109.114 41.5883 109.114 40.25ZM128.907 44.7325C127.573 44.7325 126.385 44.43 125.343 43.825C124.32 43.2017 123.515 42.3583 122.93 41.295C122.345 40.2133 122.053 38.9758 122.053 37.5825C122.053 36.1708 122.336 34.9242 122.903 33.8425C123.47 32.7608 124.265 31.9175 125.288 31.3125C126.312 30.6892 127.481 30.3775 128.798 30.3775C130.168 30.3775 131.348 30.6708 132.335 31.2575C133.322 31.8258 134.081 32.6233 134.61 33.65C135.159 34.6767 135.433 35.905 135.433 37.335V38.3525L123.807 38.38L123.862 36.235H132.115C132.115 35.3 131.814 34.5483 131.21 33.98C130.626 33.4117 129.831 33.1275 128.825 33.1275C128.039 33.1275 127.372 33.2925 126.823 33.6225C126.294 33.9525 125.891 34.4475 125.617 35.1075C125.343 35.7675 125.206 36.5742 125.206 37.5275C125.206 38.9942 125.517 40.1033 126.138 40.855C126.778 41.6067 127.72 41.9825 128.962 41.9825C129.876 41.9825 130.626 41.8083 131.21 41.46C131.814 41.1117 132.207 40.6167 132.389 39.975H135.488C135.195 41.46 134.465 42.6242 133.294 43.4675C132.143 44.3108 130.681 44.7325 128.907 44.7325ZM146.61 30.735V33.8425H145.376C144.151 33.8425 143.192 34.1725 142.497 34.8325C141.803 35.4742 141.455 36.455 141.455 37.775V44.375H138.11V30.8175H141.263L141.537 33.6225H141.208C141.391 32.7242 141.821 31.9908 142.497 31.4225C143.174 30.8542 144.051 30.57 145.129 30.57C145.367 30.57 145.605 30.5792 145.842 30.5975C146.08 30.6158 146.336 30.6617 146.61 30.735ZM153.114 44.375L147.74 30.79H151.305L153.663 37.0325C153.955 37.8392 154.202 38.5817 154.403 39.26C154.622 39.92 154.778 40.4333 154.869 40.8C154.961 40.3783 155.116 39.8375 155.335 39.1775C155.573 38.4992 155.838 37.7842 156.13 37.0325L158.598 30.79H162.053L156.404 44.375H153.114ZM163.976 44.375V30.79H167.321V44.375H163.976ZM165.621 28.0675C165.054 28.0675 164.57 27.875 164.168 27.49C163.784 27.0867 163.592 26.6008 163.592 26.0325C163.592 25.4642 163.784 24.9875 164.168 24.6025C164.57 24.2175 165.054 24.025 165.621 24.025C166.188 24.025 166.663 24.2175 167.047 24.6025C167.449 24.9875 167.65 25.4642 167.65 26.0325C167.65 26.6008 167.449 27.0867 167.047 27.49C166.663 27.875 166.188 28.0675 165.621 28.0675ZM169.982 37.555C169.982 36.1617 170.265 34.9242 170.832 33.8425C171.417 32.7608 172.212 31.9175 173.217 31.3125C174.241 30.6892 175.42 30.3775 176.754 30.3775C178.601 30.3775 180.109 30.8633 181.278 31.835C182.467 32.7883 183.152 34.0808 183.335 35.7125H179.99C179.789 34.9425 179.414 34.365 178.865 33.98C178.336 33.5767 177.668 33.375 176.864 33.375C176.17 33.375 175.548 33.5492 174.999 33.8975C174.47 34.2275 174.058 34.7042 173.766 35.3275C173.473 35.9508 173.327 36.6933 173.327 37.555C173.327 38.4167 173.464 39.1592 173.738 39.7825C174.012 40.4058 174.405 40.8917 174.917 41.24C175.447 41.57 176.069 41.735 176.782 41.735C177.623 41.735 178.317 41.5333 178.865 41.13C179.432 40.7267 179.807 40.1492 179.99 39.3975H183.362C183.216 40.4608 182.841 41.3958 182.238 42.2025C181.653 42.9908 180.894 43.6142 179.962 44.0725C179.03 44.5125 177.97 44.7325 176.782 44.7325C175.411 44.7325 174.214 44.4392 173.19 43.8525C172.166 43.2475 171.371 42.4133 170.804 41.35C170.256 40.2683 169.982 39.0033 169.982 37.555ZM191.912 44.7325C190.577 44.7325 189.389 44.43 188.347 43.825C187.323 43.2017 186.519 42.3583 185.934 41.295C185.349 40.2133 185.057 38.9758 185.057 37.5825C185.057 36.1708 185.34 34.9242 185.907 33.8425C186.473 32.7608 187.269 31.9175 188.292 31.3125C189.316 30.6892 190.486 30.3775 191.802 30.3775C193.173 30.3775 194.352 30.6708 195.339 31.2575C196.326 31.8258 197.085 32.6233 197.615 33.65C198.163 34.6767 198.437 35.905 198.437 37.335V38.3525L186.812 38.38L186.867 36.235H195.12C195.12 35.3 194.818 34.5483 194.215 33.98C193.63 33.4117 192.835 33.1275 191.829 33.1275C191.043 33.1275 190.376 33.2925 189.828 33.6225C189.298 33.9525 188.896 34.4475 188.621 35.1075C188.347 35.7675 188.21 36.5742 188.21 37.5275C188.21 38.9942 188.521 40.1033 189.142 40.855C189.782 41.6067 190.723 41.9825 191.967 41.9825C192.88 41.9825 193.63 41.8083 194.215 41.46C194.818 41.1117 195.211 40.6167 195.394 39.975H198.492C198.199 41.46 197.468 42.6242 196.299 43.4675C195.147 44.3108 193.685 44.7325 191.912 44.7325ZM200.073 40.25H203.253C203.271 40.8367 203.491 41.3042 203.911 41.6525C204.332 42.0008 204.916 42.175 205.666 42.175C206.47 42.175 207.074 42.0283 207.476 41.735C207.896 41.4417 208.106 41.0475 208.106 40.5525C208.106 40.2225 207.997 39.9292 207.777 39.6725C207.558 39.4158 207.147 39.2233 206.543 39.095L204.103 38.5175C202.879 38.2425 201.964 37.8025 201.361 37.1975C200.776 36.5742 200.484 35.7217 200.484 34.64C200.484 33.76 200.713 32.9992 201.169 32.3575C201.645 31.7158 202.284 31.23 203.089 30.9C203.893 30.5517 204.816 30.3775 205.858 30.3775C206.863 30.3775 207.75 30.5608 208.517 30.9275C209.285 31.2942 209.879 31.8075 210.3 32.4675C210.738 33.1275 210.967 33.8975 210.985 34.7775H207.805C207.805 34.1908 207.622 33.7325 207.256 33.4025C206.89 33.0542 206.379 32.88 205.721 32.88C205.063 32.88 204.551 33.0267 204.185 33.32C203.82 33.6133 203.637 34.0075 203.637 34.5025C203.637 35.2542 204.222 35.7675 205.392 36.0425L207.832 36.62C208.966 36.8767 209.816 37.2892 210.382 37.8575C210.967 38.4258 211.259 39.2325 211.259 40.2775C211.259 41.1942 211.022 41.9917 210.546 42.67C210.071 43.33 209.404 43.8433 208.545 44.21C207.686 44.5583 206.699 44.7325 205.584 44.7325C203.902 44.7325 202.558 44.32 201.553 43.495C200.566 42.67 200.073 41.5883 200.073 40.25Z" fill="#545454"/>
</svg>
